<svg width="90px" height="90px" viewBox="0 0 3.6 3.6" xmlns="http://www.w3.org/2000/svg"><title>file_type_sql</title><path d="M0.963 1.716A2.385 2.385 0 0 0 1.8 1.851a2.385 2.385 0 0 0 0.837 -0.134c0.21 -0.082 0.284 -0.173 0.284 -0.225V1.091a1.17 1.17 0 0 1 -0.234 0.121A2.509 2.509 0 0 1 1.8 1.359a2.52 2.52 0 0 1 -0.886 -0.146A1.159 1.159 0 0 1 0.679 1.091v0.399c0 0.053 0.075 0.144 0.284 0.226" style="fill:#ffda44"/><path d="M0.963 2.471a1.755 1.755 0 0 0 0.293 0.083 2.813 2.813 0 0 0 0.544 0.051 2.813 2.813 0 0 0 0.544 -0.051 1.755 1.755 0 0 0 0.293 -0.083c0.21 -0.082 0.284 -0.173 0.284 -0.225v-0.381a1.204 1.204 0 0 1 -0.19 0.093A2.644 2.644 0 0 1 1.8 2.108a2.644 2.644 0 0 1 -0.93 -0.152 1.238 1.238 0 0 1 -0.19 -0.093v0.382c0 0.052 0.075 0.143 0.284 0.225" style="fill:#ffda44"/><path d="M1.8 3.375c0.619 0 1.121 -0.196 1.121 -0.438v-0.319a1.181 1.181 0 0 1 -0.173 0.086l-0.018 0.007A2.644 2.644 0 0 1 1.8 2.863a2.632 2.632 0 0 1 -0.93 -0.152q-0.009 -0.004 -0.018 -0.007a1.181 1.181 0 0 1 -0.173 -0.086v0.319C0.679 3.179 1.181 3.375 1.8 3.375" style="fill:#ffda44"/><path cx="16" cy="5.894" rx="9.963" ry="3.894" style="fill:#ffda44" d="M2.921 0.663A1.121 0.438 0 0 1 1.8 1.101A1.121 0.438 0 0 1 0.679 0.663A1.121 0.438 0 0 1 2.921 0.663z"/></svg>